<svg id="visual" viewBox="0 0 960 540" width="960" height="540" xmlns="http://www.w3.org/2000/svg" xmlns:xlink="http://www.w3.org/1999/xlink" version="1.1"><path d="M0 411L8.5 384.8C17 358.7 34 306.3 50.8 271.5C67.7 236.7 84.3 219.3 101.2 235.8C118 252.3 135 302.7 151.8 332.7C168.7 362.7 185.3 372.3 202.2 364.3C219 356.3 236 330.7 252.8 310C269.7 289.3 286.3 273.7 303.2 287.2C320 300.7 337 343.3 353.8 359.7C370.7 376 387.3 366 404.2 358.2C421 350.3 438 344.7 454.8 313C471.7 281.3 488.3 223.7 505.2 200.2C522 176.7 539 187.3 555.8 203.2C572.7 219 589.3 240 606.2 275C623 310 640 359 656.8 378.8C673.7 398.7 690.3 389.3 707.2 352.5C724 315.7 741 251.3 757.8 250.7C774.7 250 791.3 313 808.2 309.5C825 306 842 236 858.8 226.3C875.7 216.7 892.3 267.3 909.2 305.2C926 343 943 368 951.5 380.5L960 393L960 541L951.5 541C943 541 926 541 909.2 541C892.3 541 875.7 541 858.8 541C842 541 825 541 808.2 541C791.3 541 774.7 541 757.8 541C741 541 724 541 707.2 541C690.3 541 673.7 541 656.8 541C640 541 623 541 606.2 541C589.3 541 572.7 541 555.8 541C539 541 522 541 505.2 541C488.3 541 471.7 541 454.8 541C438 541 421 541 404.2 541C387.3 541 370.7 541 353.8 541C337 541 320 541 303.2 541C286.3 541 269.7 541 252.8 541C236 541 219 541 202.2 541C185.3 541 168.7 541 151.8 541C135 541 118 541 101.2 541C84.3 541 67.7 541 50.8 541C34 541 17 541 8.5 541L0 541Z" fill="#E4717A" stroke-linecap="round" stroke-linejoin="miter"></path></svg>