<svg id="visual" viewBox="0 0 900 450" width="900" height="450" xmlns="http://www.w3.org/2000/svg" xmlns:xlink="http://www.w3.org/1999/xlink" version="1.1"><path d="M285 450L303.2 445.8C321.3 441.7 357.7 433.3 339.3 425C321 416.7 248 408.3 212.2 400C176.3 391.7 177.7 383.3 236.5 375C295.3 366.7 411.7 358.3 443.2 350C474.7 341.7 421.3 333.3 366.5 325C311.7 316.7 255.3 308.3 295 300C334.7 291.7 470.3 283.3 549.8 275C629.3 266.7 652.7 258.3 685.7 250C718.7 241.7 761.3 233.3 697.5 225C633.7 216.7 463.3 208.3 371.5 200C279.7 191.7 266.3 183.3 299.2 175C332 166.7 411 158.3 422.7 150C434.3 141.7 378.7 133.3 370.7 125C362.7 116.7 402.3 108.3 439.3 100C476.3 91.7 510.7 83.3 470.3 75C430 66.7 315 58.3 266 50C217 41.7 234 33.3 333.8 25C433.7 16.7 616.3 8.3 707.7 4.2L799 0L900 0L900 4.2C900 8.3 900 16.7 900 25C900 33.3 900 41.7 900 50C900 58.3 900 66.7 900 75C900 83.3 900 91.7 900 100C900 108.3 900 116.7 900 125C900 133.3 900 141.7 900 150C900 158.3 900 166.7 900 175C900 183.3 900 191.7 900 200C900 208.3 900 216.7 900 225C900 233.3 900 241.7 900 250C900 258.3 900 266.7 900 275C900 283.3 900 291.7 900 300C900 308.3 900 316.7 900 325C900 333.3 900 341.7 900 350C900 358.3 900 366.7 900 375C900 383.3 900 391.7 900 400C900 408.3 900 416.7 900 425C900 433.3 900 441.7 900 445.8L900 450Z" fill="#E4717A" stroke-linecap="round" stroke-linejoin="miter"></path></svg>