<svg id="visual" viewBox="0 0 960 540" width="960" height="540" xmlns="http://www.w3.org/2000/svg" xmlns:xlink="http://www.w3.org/1999/xlink" version="1.1"><path d="M0 66L12.3 63.3C24.7 60.7 49.3 55.3 74 49C98.7 42.7 123.3 35.3 148 35.3C172.7 35.3 197.3 42.7 221.8 49.8C246.3 57 270.7 64 295.2 59.5C319.7 55 344.3 39 369 40C393.7 41 418.3 59 443 63.5C467.7 68 492.3 59 517 53.5C541.7 48 566.3 46 591 42.3C615.7 38.7 640.3 33.3 664.8 32.5C689.3 31.7 713.7 35.3 738.2 34.5C762.7 33.7 787.3 28.3 812 25.7C836.7 23 861.3 23 886 26.5C910.7 30 935.3 37 947.7 40.5L960 44L960 0L947.7 0C935.3 0 910.7 0 886 0C861.3 0 836.7 0 812 0C787.3 0 762.7 0 738.2 0C713.7 0 689.3 0 664.8 0C640.3 0 615.7 0 591 0C566.3 0 541.7 0 517 0C492.3 0 467.7 0 443 0C418.3 0 393.7 0 369 0C344.3 0 319.7 0 295.2 0C270.7 0 246.3 0 221.8 0C197.3 0 172.7 0 148 0C123.3 0 98.7 0 74 0C49.3 0 24.7 0 12.3 0L0 0Z" fill="#e4717a"></path><path d="M0 212L12.3 212C24.7 212 49.3 212 74 198.5C98.7 185 123.3 158 148 153.5C172.7 149 197.3 167 221.8 170.5C246.3 174 270.7 163 295.2 158.5C319.7 154 344.3 156 369 165C393.7 174 418.3 190 443 184.5C467.7 179 492.3 152 517 148.5C541.7 145 566.3 165 591 177.7C615.7 190.3 640.3 195.7 664.8 188.3C689.3 181 713.7 161 738.2 152C762.7 143 787.3 145 812 154C836.7 163 861.3 179 886 187C910.7 195 935.3 195 947.7 195L960 195L960 42L947.7 38.5C935.3 35 910.7 28 886 24.5C861.3 21 836.7 21 812 23.7C787.3 26.3 762.7 31.7 738.2 32.5C713.7 33.3 689.3 29.7 664.8 30.5C640.3 31.3 615.7 36.7 591 40.3C566.3 44 541.7 46 517 51.5C492.3 57 467.7 66 443 61.5C418.3 57 393.7 39 369 38C344.3 37 319.7 53 295.2 57.5C270.7 62 246.3 55 221.8 47.8C197.3 40.7 172.7 33.3 148 33.3C123.3 33.3 98.7 40.7 74 47C49.3 53.3 24.7 58.7 12.3 61.3L0 64Z" fill="#f07970"></path><path d="M0 255L12.3 254C24.7 253 49.3 251 74 239.3C98.7 227.7 123.3 206.3 148 200.2C172.7 194 197.3 203 221.8 200.2C246.3 197.3 270.7 182.7 295.2 176.3C319.7 170 344.3 172 369 182C393.7 192 418.3 210 443 208.2C467.7 206.3 492.3 184.7 517 183.7C541.7 182.7 566.3 202.3 591 212.2C615.7 222 640.3 222 664.8 214.8C689.3 207.7 713.7 193.3 738.2 186.2C762.7 179 787.3 179 812 190.7C836.7 202.3 861.3 225.7 886 231.2C910.7 236.7 935.3 224.3 947.7 218.2L960 212L960 193L947.7 193C935.3 193 910.7 193 886 185C861.3 177 836.7 161 812 152C787.3 143 762.7 141 738.2 150C713.7 159 689.3 179 664.8 186.3C640.3 193.7 615.7 188.3 591 175.7C566.3 163 541.7 143 517 146.5C492.3 150 467.7 177 443 182.5C418.3 188 393.7 172 369 163C344.3 154 319.7 152 295.2 156.5C270.7 161 246.3 172 221.8 168.5C197.3 165 172.7 147 148 151.5C123.3 156 98.7 183 74 196.5C49.3 210 24.7 210 12.3 210L0 210Z" fill="#f98465"></path><path d="M0 309L12.3 314.3C24.7 319.7 49.3 330.3 74 330.3C98.7 330.3 123.3 319.7 148 311.7C172.7 303.7 197.3 298.3 221.8 298.3C246.3 298.3 270.7 303.7 295.2 301.8C319.7 300 344.3 291 369 287.3C393.7 283.7 418.3 285.3 443 288.8C467.7 292.3 492.3 297.7 517 302.2C541.7 306.7 566.3 310.3 591 316.7C615.7 323 640.3 332 664.8 335.7C689.3 339.3 713.7 337.7 738.2 335C762.7 332.3 787.3 328.7 812 330.5C836.7 332.3 861.3 339.7 886 336C910.7 332.3 935.3 317.7 947.7 310.3L960 303L960 210L947.7 216.2C935.3 222.3 910.7 234.7 886 229.2C861.3 223.7 836.7 200.3 812 188.7C787.3 177 762.7 177 738.2 184.2C713.7 191.3 689.3 205.7 664.8 212.8C640.3 220 615.7 220 591 210.2C566.3 200.3 541.7 180.7 517 181.7C492.3 182.7 467.7 204.3 443 206.2C418.3 208 393.7 190 369 180C344.3 170 319.7 168 295.2 174.3C270.7 180.7 246.3 195.3 221.8 198.2C197.3 201 172.7 192 148 198.2C123.3 204.3 98.7 225.7 74 237.3C49.3 249 24.7 251 12.3 252L0 253Z" fill="#fe915a"></path><path d="M0 395L12.3 394.2C24.7 393.3 49.3 391.7 74 389.8C98.7 388 123.3 386 148 389.5C172.7 393 197.3 402 221.8 400.3C246.3 398.7 270.7 386.3 295.2 382.8C319.7 379.3 344.3 384.7 369 386.3C393.7 388 418.3 386 443 377C467.7 368 492.3 352 517 348.5C541.7 345 566.3 354 591 363C615.7 372 640.3 381 664.8 383.7C689.3 386.3 713.7 382.7 738.2 384.5C762.7 386.3 787.3 393.7 812 400.8C836.7 408 861.3 415 886 413.2C910.7 411.3 935.3 400.7 947.7 395.3L960 390L960 301L947.7 308.3C935.3 315.7 910.7 330.3 886 334C861.3 337.7 836.7 330.3 812 328.5C787.3 326.7 762.7 330.3 738.2 333C713.7 335.7 689.3 337.3 664.8 333.7C640.3 330 615.7 321 591 314.7C566.3 308.3 541.7 304.7 517 300.2C492.3 295.7 467.7 290.3 443 286.8C418.3 283.3 393.7 281.7 369 285.3C344.3 289 319.7 298 295.2 299.8C270.7 301.7 246.3 296.3 221.8 296.3C197.3 296.3 172.7 301.7 148 309.7C123.3 317.7 98.7 328.3 74 328.3C49.3 328.3 24.7 317.7 12.3 312.3L0 307Z" fill="#ff9f4e"></path><path d="M0 411L12.3 411C24.7 411 49.3 411 74 409.3C98.7 407.7 123.3 404.3 148 407.2C172.7 410 197.3 419 221.8 417.2C246.3 415.3 270.7 402.7 295.2 402.7C319.7 402.7 344.3 415.3 369 420.7C393.7 426 418.3 424 443 415.8C467.7 407.7 492.3 393.3 517 386.2C541.7 379 566.3 379 591 386.2C615.7 393.3 640.3 407.7 664.8 413C689.3 418.3 713.7 414.7 738.2 414.7C762.7 414.7 787.3 418.3 812 424.7C836.7 431 861.3 440 886 441C910.7 442 935.3 435 947.7 431.5L960 428L960 388L947.7 393.3C935.3 398.7 910.7 409.3 886 411.2C861.3 413 836.7 406 812 398.8C787.3 391.7 762.7 384.3 738.2 382.5C713.7 380.7 689.3 384.3 664.8 381.7C640.3 379 615.7 370 591 361C566.3 352 541.7 343 517 346.5C492.3 350 467.7 366 443 375C418.3 384 393.7 386 369 384.3C344.3 382.7 319.7 377.3 295.2 380.8C270.7 384.3 246.3 396.7 221.8 398.3C197.3 400 172.7 391 148 387.5C123.3 384 98.7 386 74 387.8C49.3 389.7 24.7 391.3 12.3 392.2L0 393Z" fill="#ffaf41"></path><path d="M0 455L12.3 453.2C24.7 451.3 49.3 447.7 74 443.2C98.7 438.7 123.3 433.3 148 435.2C172.7 437 197.3 446 221.8 444.2C246.3 442.3 270.7 429.7 295.2 431.3C319.7 433 344.3 449 369 452.5C393.7 456 418.3 447 443 439.8C467.7 432.7 492.3 427.3 517 421.2C541.7 415 566.3 408 591 416.2C615.7 424.3 640.3 447.7 664.8 457.5C689.3 467.3 713.7 463.7 738.2 462.7C762.7 461.7 787.3 463.3 812 466C836.7 468.7 861.3 472.3 886 470.7C910.7 469 935.3 462 947.7 458.5L960 455L960 426L947.7 429.5C935.3 433 910.7 440 886 439C861.3 438 836.7 429 812 422.7C787.3 416.3 762.7 412.7 738.2 412.7C713.7 412.7 689.3 416.3 664.8 411C640.3 405.7 615.7 391.3 591 384.2C566.3 377 541.7 377 517 384.2C492.3 391.3 467.7 405.7 443 413.8C418.3 422 393.7 424 369 418.7C344.3 413.3 319.7 400.7 295.2 400.7C270.7 400.7 246.3 413.3 221.8 415.2C197.3 417 172.7 408 148 405.2C123.3 402.3 98.7 405.7 74 407.3C49.3 409 24.7 409 12.3 409L0 409Z" fill="#ffc132"></path><path d="M0 514L12.3 508.7C24.7 503.3 49.3 492.7 74 487.3C98.7 482 123.3 482 148 486.5C172.7 491 197.3 500 221.8 498.2C246.3 496.3 270.7 483.7 295.2 481.8C319.7 480 344.3 489 369 488C393.7 487 418.3 476 443 470.5C467.7 465 492.3 465 517 463.3C541.7 461.7 566.3 458.3 591 463.8C615.7 469.3 640.3 483.7 664.8 488.2C689.3 492.7 713.7 487.3 738.2 485.5C762.7 483.7 787.3 485.3 812 489.8C836.7 494.3 861.3 501.7 886 503.5C910.7 505.3 935.3 501.7 947.7 499.8L960 498L960 453L947.7 456.5C935.3 460 910.7 467 886 468.7C861.3 470.3 836.7 466.7 812 464C787.3 461.3 762.7 459.7 738.2 460.7C713.7 461.7 689.3 465.3 664.8 455.5C640.3 445.7 615.7 422.3 591 414.2C566.3 406 541.7 413 517 419.2C492.3 425.3 467.7 430.7 443 437.8C418.3 445 393.7 454 369 450.5C344.3 447 319.7 431 295.2 429.3C270.7 427.7 246.3 440.3 221.8 442.2C197.3 444 172.7 435 148 433.2C123.3 431.3 98.7 436.7 74 441.2C49.3 445.7 24.7 449.3 12.3 451.2L0 453Z" fill="#ffd51e"></path><path d="M0 541L12.3 541C24.7 541 49.3 541 74 541C98.7 541 123.3 541 148 541C172.7 541 197.3 541 221.8 541C246.3 541 270.7 541 295.2 541C319.7 541 344.3 541 369 541C393.7 541 418.3 541 443 541C467.7 541 492.3 541 517 541C541.7 541 566.3 541 591 541C615.7 541 640.3 541 664.8 541C689.3 541 713.7 541 738.2 541C762.7 541 787.3 541 812 541C836.7 541 861.3 541 886 541C910.7 541 935.3 541 947.7 541L960 541L960 496L947.7 497.8C935.3 499.7 910.7 503.3 886 501.5C861.3 499.7 836.7 492.3 812 487.8C787.3 483.3 762.7 481.7 738.2 483.5C713.7 485.3 689.3 490.7 664.8 486.2C640.3 481.7 615.7 467.3 591 461.8C566.3 456.3 541.7 459.7 517 461.3C492.3 463 467.7 463 443 468.5C418.3 474 393.7 485 369 486C344.3 487 319.7 478 295.2 479.8C270.7 481.7 246.3 494.3 221.8 496.2C197.3 498 172.7 489 148 484.5C123.3 480 98.7 480 74 485.3C49.3 490.7 24.7 501.3 12.3 506.7L0 512Z" fill="#ffe900"></path></svg>